<?xml version="1.0" standalone="no"?>
<!DOCTYPE svg PUBLIC "-//W3C//DTD SVG 20010904//EN"
 "http://www.w3.org/TR/2001/REC-SVG-20010904/DTD/svg10.dtd">
<svg version="1.0" xmlns="http://www.w3.org/2000/svg"
 width="800.000000pt" height="800.000000pt" viewBox="0 0 800.000000 800.000000"
 preserveAspectRatio="xMidYMid meet">
<metadata>
Created by potrace 1.11, written by Peter Selinger 2001-2013
</metadata>
<g transform="translate(0.000000,800.000000) scale(0.100000,-0.100000)"
fill="#000000" stroke="none">
<path d="M3788 7985 c-2 -2 -37 -5 -78 -6 -41 -1 -92 -6 -114 -10 -23 -4 -68
-10 -101 -13 -33 -4 -71 -9 -85 -11 -14 -2 -45 -7 -70 -11 -24 -3 -47 -7 -50
-9 -3 -2 -23 -6 -44 -9 -33 -5 -117 -23 -198 -41 -83 -18 -396 -115 -453 -140
-16 -7 -77 -32 -135 -55 -271 -108 -701 -360 -910 -532 -19 -16 -39 -32 -45
-36 -5 -4 -37 -30 -70 -57 -283 -238 -545 -531 -754 -843 -56 -83 -101 -154
-101 -158 0 -3 -17 -32 -38 -63 -81 -121 -249 -498 -331 -741 -18 -52 -36
-104 -41 -115 -10 -27 -87 -364 -100 -440 -5 -33 -12 -74 -15 -91 -2 -17 -7
-46 -9 -65 -2 -19 -10 -79 -17 -134 -21 -162 -17 -680 6 -850 2 -16 7 -57 11
-90 4 -33 8 -62 9 -65 1 -3 5 -30 9 -60 4 -30 12 -71 16 -90 5 -19 12 -51 15
-71 3 -19 19 -87 36 -150 16 -63 32 -123 34 -133 15 -64 102 -313 140 -401 8
-16 23 -54 35 -84 48 -124 201 -409 309 -576 127 -198 309 -425 490 -614 24
-25 51 -55 60 -66 9 -11 46 -45 81 -75 36 -30 72 -61 80 -70 8 -9 65 -56 125
-105 61 -49 126 -106 146 -127 20 -21 43 -38 51 -38 9 0 62 -31 119 -68 57
-38 115 -75 129 -82 14 -7 48 -28 76 -47 46 -30 322 -168 400 -200 16 -7 54
-23 85 -37 31 -13 123 -47 205 -75 82 -28 158 -55 169 -60 21 -9 85 -24 300
-71 114 -24 187 -37 325 -56 19 -3 46 -7 60 -10 149 -25 744 -25 890 0 14 3
48 7 75 11 102 13 121 16 250 40 17 3 57 9 90 12 33 3 65 9 70 13 6 5 62 23
125 40 481 134 939 358 1330 649 89 67 285 230 356 297 29 27 67 63 85 80 19
17 47 46 63 65 16 19 60 68 96 109 37 41 97 113 134 159 38 46 81 95 96 107
15 13 31 36 35 51 3 15 19 43 34 62 27 36 69 99 131 201 18 30 46 68 62 84 15
15 28 37 28 47 0 11 29 77 64 148 81 160 141 302 195 456 24 66 51 139 62 163
10 23 19 56 19 72 0 16 4 40 10 55 12 31 57 226 65 281 4 21 10 55 15 74 12
49 19 110 44 360 13 126 15 633 3 685 -3 11 -8 49 -11 85 -4 36 -9 76 -11 90
-2 14 -7 45 -10 70 -4 25 -10 63 -15 85 -5 22 -11 56 -15 75 -13 83 -29 153
-61 270 -167 621 -455 1150 -897 1647 -128 145 -352 352 -517 478 -36 28 -67
53 -70 56 -8 11 -270 182 -325 213 -27 16 -57 35 -65 42 -25 21 -317 163 -445
216 -66 27 -181 70 -255 95 -74 25 -139 49 -145 54 -5 5 -19 9 -31 9 -12 0
-64 11 -115 24 -88 23 -256 59 -324 70 -57 9 -250 35 -310 42 -64 7 -561 15
-567 9z m547 -28 c17 -3 64 -8 105 -12 41 -4 77 -8 80 -10 3 -1 32 -6 65 -10
69 -7 284 -50 365 -71 30 -9 63 -17 74 -19 26 -6 27 -7 6 -33 -21 -25 -31 -28
-135 -37 -84 -6 -169 -15 -210 -20 -16 -2 -67 -7 -112 -11 -82 -6 -83 -6 -92
19 -24 62 -122 101 -194 78 -40 -14 -93 -68 -103 -106 -6 -24 -9 -25 -94 -25
l-87 0 -7 42 c-13 83 -56 143 -148 210 -22 16 -11 17 217 13 132 -2 254 -6
270 -8z m-769 -26 c-96 -63 -144 -197 -111 -307 l12 -41 -126 91 c-164 118
-185 135 -178 142 3 4 0 19 -9 35 -13 27 -13 29 3 30 10 0 25 2 33 4 8 2 80
15 160 29 128 22 173 29 230 34 8 1 2 -7 -14 -17z m-518 -98 c0 -10 2 -29 6
-43 6 -22 -2 -36 -51 -90 -32 -35 -69 -78 -83 -96 -33 -44 -54 -50 -82 -24
-29 28 -122 75 -168 86 -19 4 -38 9 -42 10 -5 1 -32 2 -60 3 l-53 2 50 20
c124 49 428 145 467 148 10 1 16 -6 16 -16z m2240 -79 c146 -50 349 -134 476
-198 l105 -53 -29 -28 -29 -28 -98 43 c-97 42 -127 56 -273 123 -41 18 -118
53 -171 76 -90 39 -96 44 -97 71 0 17 2 30 5 30 3 0 53 -16 111 -36z m-2001
-65 c71 -51 145 -105 166 -122 l39 -30 -51 -29 -51 -30 -26 21 c-17 14 -41 21
-68 21 l-41 0 -48 115 c-61 147 -60 145 -53 145 3 0 63 -41 133 -91z m-144 54
c3 -10 26 -69 52 -131 43 -104 45 -115 31 -131 -36 -40 -23 -109 27 -140 l32
-20 -1 -133 c-2 -160 -1 -148 -19 -148 -8 0 -30 -14 -49 -30 -18 -17 -42 -29
-52 -27 -51 8 -194 61 -194 72 0 7 7 32 15 56 16 45 22 150 11 205 -11 57 -35
114 -72 169 l-36 55 68 78 c38 42 82 91 98 109 33 37 80 45 89 16z m1878 -9
c4 -13 17 -29 28 -36 14 -9 17 -17 11 -32 -8 -22 -98 -214 -132 -283 l-21 -42
-121 82 c-67 45 -128 86 -137 92 -9 5 -48 32 -87 58 -68 48 -70 50 -68 88 1
21 4 41 7 43 2 2 38 7 79 11 41 4 89 9 105 10 17 2 64 7 105 10 41 4 102 10
135 14 87 10 86 10 96 -15z m196 -45 c53 -23 70 -30 196 -88 49 -23 91 -41 93
-41 3 0 35 -14 179 -80 33 -15 75 -33 93 -41 17 -8 32 -19 32 -26 0 -7 7 -27
16 -45 15 -32 14 -35 -14 -88 -31 -59 -30 -59 -112 -35 -71 20 -185 20 -233 0
-20 -8 -37 -13 -37 -10 0 10 -88 -40 -132 -77 -26 -21 -50 -38 -55 -38 -13 0
-312 204 -313 214 0 5 27 66 61 135 33 69 68 143 76 163 10 25 27 44 51 56 48
25 43 25 99 1z m-1033 -43 c4 -18 21 -50 39 -71 l33 -38 -13 -81 c-7 -45 -15
-99 -18 -121 -3 -22 -8 -51 -10 -65 -3 -14 -7 -40 -10 -57 -10 -66 -16 -97
-18 -100 -2 -1 -44 -11 -95 -22 l-92 -20 -28 27 c-16 15 -34 41 -40 57 -6 17
-31 86 -56 154 -25 69 -46 128 -46 131 0 4 11 12 24 18 53 24 115 98 131 157
5 17 9 33 10 38 2 4 3 12 4 17 0 6 38 10 90 10 l89 0 6 -34z m507 -183 c112
-75 205 -137 207 -138 7 -5 -129 -276 -141 -281 -20 -7 -196 98 -197 118 0 18
-38 50 -50 43 -4 -2 -17 22 -30 53 -28 67 -87 200 -101 224 -16 30 -10 42 31
61 22 10 45 27 50 38 6 10 15 19 19 19 5 0 100 -61 212 -137z m-2468 65 c-76
-81 -118 -204 -110 -320 l5 -70 -106 7 c-176 11 -195 14 -215 36 -45 49 -129
-7 -98 -65 14 -24 10 -32 -75 -158 -49 -73 -92 -136 -95 -140 -3 -4 -28 3 -55
17 -73 36 -190 38 -244 2 -15 -10 37 41 115 112 60 55 165 143 195 166 15 11
54 40 86 65 87 66 288 199 379 252 90 52 235 128 243 128 3 0 -8 -15 -25 -32z
m2119 -16 c15 -15 145 -318 141 -328 -4 -10 -34 -18 -140 -40 -6 -1 -34 -7
-63 -13 -71 -15 -71 -15 -65 22 20 119 25 146 29 177 17 116 29 186 33 193 5
9 53 1 65 -11z m-813 -24 c5 -18 22 -90 36 -160 25 -119 26 -128 10 -152 -9
-14 -14 -30 -10 -36 8 -13 -38 -59 -123 -119 -31 -22 -34 -22 -51 -7 -10 10
-34 21 -54 27 l-34 9 1 138 c1 132 2 137 23 140 38 6 73 50 73 93 0 38 5 44
75 86 32 19 43 15 54 -19z m79 -38 c47 -23 118 -31 167 -20 l33 7 22 -61 c12
-33 39 -108 61 -165 34 -93 37 -107 24 -121 -14 -15 -24 -14 -124 14 -100 28
-110 33 -115 57 -3 18 -15 30 -35 37 -30 10 -39 35 -66 182 -3 14 -8 40 -11
58 -3 17 -4 32 -2 32 2 0 23 -9 46 -20z m2458 -61 c130 -79 229 -149 211 -149
-10 0 -29 -12 -42 -26 -18 -19 -28 -24 -37 -17 -142 109 -216 175 -213 191 2
9 4 23 4 30 1 17 3 16 77 -29z m-29 -90 c151 -118 170 -136 175 -163 4 -22 -2
-26 -91 -55 -149 -48 -152 -48 -181 -2 -24 37 -106 115 -131 123 -7 2 -1 25
20 67 28 54 35 62 54 58 12 -3 36 0 52 8 17 7 32 14 34 14 2 1 33 -22 68 -50z
m-813 -192 c6 -2 -28 -75 -59 -124 -4 -6 -54 -6 -120 1 -38 3 -99 9 -135 12
-83 7 -93 10 -107 32 -12 20 -12 19 70 192 48 100 29 101 195 -11 81 -54 151
-100 156 -102z m1331 -71 c39 -33 72 -62 75 -65 3 -3 22 -21 43 -39 41 -35 41
-37 0 -21 -48 18 -143 13 -195 -9 -56 -25 -49 -31 -98 92 l-31 78 21 33 c11
18 20 40 20 49 0 18 22 3 165 -118z m-2068 102 c14 -18 14 -226 0 -265 -9 -29
-22 -37 -109 -72 -54 -22 -98 -35 -98 -30 0 16 -43 54 -75 65 -22 8 -30 17
-29 35 1 43 28 217 35 223 5 5 228 54 250 55 9 1 21 -5 26 -11z m-2477 -13
c111 -8 117 -10 130 -51 7 -19 27 -57 46 -85 19 -28 34 -54 34 -57 0 -4 -13
-18 -29 -32 -127 -111 -133 -115 -170 -117 -31 -1 -40 4 -57 30 -38 58 -161
252 -168 264 -3 6 -1 23 6 37 11 25 15 26 67 22 31 -3 94 -8 141 -11z m2634
-50 c122 -72 122 -79 -1 -146 -69 -37 -101 -49 -111 -42 -11 7 -15 33 -15 114
0 105 4 129 25 129 6 0 52 -25 102 -55z m-764 -18 c14 -7 25 -17 25 -24 0 -11
-54 -72 -196 -219 -37 -39 -73 -68 -78 -64 -7 4 -10 68 -10 173 0 92 4 165 8
162 5 -2 17 4 27 14 18 17 22 17 109 -6 50 -14 101 -30 115 -36z m-285 32 c8
-12 8 -339 1 -347 -3 -3 -44 13 -91 34 -75 34 -85 42 -78 59 4 11 7 51 7 88
l1 69 70 53 c75 58 80 61 90 44z m-1814 -30 c28 -39 99 -149 140 -217 40 -64
47 -86 29 -97 -10 -6 -305 -65 -325 -65 -6 0 -16 14 -24 30 -7 17 -24 43 -36
59 l-24 27 97 146 c59 89 102 145 111 143 9 -1 23 -13 32 -26z m2395 -21 c-19
-153 -29 -192 -51 -196 -68 -13 -118 -99 -98 -172 10 -37 9 -39 -27 -59 -21
-12 -40 -21 -43 -21 -9 0 4 84 15 98 8 9 8 20 -1 38 -6 14 -11 77 -11 149 0
122 1 125 27 151 19 19 49 32 103 45 41 9 79 18 84 18 5 1 6 -23 2 -51z m2077
41 c12 -7 33 -12 48 -11 25 1 30 -7 68 -99 l41 -100 -34 -42 c-18 -23 -40 -59
-47 -81 l-14 -38 -80 6 c-116 9 -199 18 -204 22 -3 2 -5 41 -6 87 -1 50 -9
103 -21 137 l-19 55 105 36 c118 41 133 44 163 28z m-3181 -90 l95 -30 0 -55
0 -55 -247 -164 c-135 -90 -253 -167 -262 -170 -9 -4 -19 -1 -23 6 -9 13 -10
253 -1 267 3 5 20 12 38 16 86 17 211 107 261 189 10 15 24 27 31 27 7 0 56
-14 108 -31z m868 -109 c0 -105 -3 -132 -15 -136 -8 -3 -17 -13 -19 -22 -5
-15 -21 -17 -113 -15 -60 1 -114 2 -121 2 -8 1 -12 7 -10 15 4 17 258 286 270
286 4 0 8 -59 8 -130z m965 96 c44 -4 112 -9 150 -12 101 -7 106 -10 94 -41
-12 -33 -15 -133 -6 -193 l7 -45 -87 -41 c-253 -120 -235 -113 -255 -94 -12
11 -31 17 -51 15 -29 -3 -36 2 -72 52 -22 31 -61 85 -87 121 -52 71 -57 90
-30 120 21 25 161 100 198 106 15 3 32 10 37 15 6 6 13 9 16 7 3 -2 42 -7 86
-10z m-2632 -86 c61 -58 177 -100 274 -101 l61 -1 0 -127 -1 -127 -28 -17
c-26 -14 -34 -31 -30 -63 1 -9 -80 -26 -199 -41 -19 -2 -41 -6 -48 -8 -7 -3
-20 10 -28 29 -20 42 -67 69 -119 71 -39 1 -41 3 -86 79 l-46 78 25 25 c17 17
23 32 19 49 -4 21 9 36 81 99 47 41 89 75 94 75 5 0 19 -9 31 -20z m929 -79
c9 -10 24 -23 33 -28 16 -9 15 -17 -5 -113 -11 -57 -23 -106 -24 -109 -2 -3
-7 -24 -11 -46 -4 -22 -8 -44 -9 -50 -2 -5 -6 -27 -11 -48 -4 -20 -11 -40 -17
-43 -5 -3 -35 -7 -67 -9 -68 -3 -138 -34 -185 -83 l-32 -32 -102 97 c-62 59
-103 107 -105 120 -2 19 37 49 248 192 138 93 255 169 260 170 6 0 18 -8 27
-18z m1301 0 c13 -5 43 -37 68 -71 24 -34 65 -90 91 -124 43 -58 46 -67 41
-105 -5 -33 -11 -45 -30 -52 -31 -11 -230 -105 -266 -125 -15 -9 -34 -14 -40
-11 -7 3 -39 64 -71 136 -54 120 -57 132 -42 147 29 28 47 74 42 104 -5 35 -8
33 98 76 95 40 80 36 109 25z m-1009 -51 c52 -25 85 -47 89 -59 3 -12 -11 -39
-41 -77 -26 -33 -80 -102 -122 -155 -41 -53 -88 -113 -103 -133 l-28 -36 -39
25 c-22 14 -44 25 -49 25 -17 0 -22 17 -12 42 5 14 12 42 15 64 4 21 15 75 26
119 10 44 24 106 30 137 11 56 12 57 44 56 17 -1 45 6 61 14 17 9 33 16 37 17
4 1 45 -17 92 -39z m3520 -180 c198 -230 369 -481 501 -735 l57 -110 -38 35
c-21 19 -41 38 -44 41 -12 14 -119 59 -160 68 -24 5 -78 9 -118 7 l-74 -3 6
101 c12 180 17 210 38 224 13 10 18 23 16 45 -4 41 -43 63 -82 46 -23 -11 -36
-4 -166 81 -77 51 -140 96 -140 99 0 3 7 15 16 26 17 23 37 88 39 130 1 30 -5
66 -19 115 -9 29 33 -13 168 -170z m-5056 120 c15 -25 24 -11 -122 -203 l-119
-156 -47 39 c-73 61 -73 61 -55 119 10 30 16 72 13 105 l-3 55 145 26 c80 15
150 28 155 30 18 6 20 5 33 -15z m4137 6 c22 -2 79 -8 126 -12 l86 -7 5 -61
c6 -71 32 -128 81 -177 l35 -35 -53 -58 -52 -59 -174 133 c-96 73 -177 136
-181 139 -4 4 1 23 12 44 11 20 20 43 20 50 0 20 29 57 43 52 6 -2 30 -6 52
-9z m-5005 -35 c-24 -46 -14 -143 24 -231 5 -12 -3 -19 -31 -29 -21 -7 -63
-25 -93 -38 l-55 -25 -37 21 c-20 11 -44 21 -52 21 -10 0 14 37 62 98 135 167
219 252 182 183z m2833 0 c9 -7 14 -24 12 -39 -1 -15 -3 -36 -4 -47 0 -11 -10
-25 -20 -30 -11 -6 -50 -27 -86 -48 -77 -45 -67 -51 -134 79 -36 68 -42 87
-31 94 22 13 246 6 263 -9z m-1883 -75 c0 -3 13 -27 30 -53 l30 -47 -30 -29
c-52 -51 -52 -121 0 -177 l30 -32 -35 -53 c-29 -44 -41 -53 -72 -58 -44 -8
-48 -5 -169 100 l-92 80 130 172 130 173 24 -35 c13 -20 24 -38 24 -41z m3143
22 c14 -29 47 -77 75 -107 l51 -54 -29 -43 c-50 -75 -74 -108 -93 -130 -18
-21 -18 -21 -56 -2 -43 21 -128 30 -170 18 -34 -10 -36 -9 -87 60 -57 76 -56
75 -45 118 11 37 15 40 147 103 114 53 149 70 181 88 1 1 13 -23 26 -51z
m-1589 -55 c-8 -156 -11 -190 -18 -201 -6 -11 -208 -132 -220 -132 -4 0 -17
12 -30 27 l-23 27 61 79 c34 43 90 116 126 161 36 46 74 95 85 109 11 15 21
27 22 27 1 0 0 -44 -3 -97z m94 -13 l51 -96 -68 -41 -69 -41 4 66 c3 37 6 96
9 132 2 36 4 72 4 80 1 22 14 3 69 -100z m407 36 c36 -19 53 -22 86 -16 l40 8
28 -62 c58 -126 92 -208 89 -211 -2 -2 -41 -21 -88 -43 -47 -22 -124 -58 -172
-81 l-88 -41 -34 18 c-29 14 -34 21 -31 47 2 16 7 79 11 140 4 60 8 121 9 135
2 14 3 37 4 51 1 20 11 33 44 53 23 14 46 25 50 26 4 0 28 -11 52 -24z m2080
-201 c72 -54 131 -99 133 -101 2 -1 -7 -15 -21 -31 -42 -48 -161 -188 -161
-190 -1 -1 -14 1 -29 4 -23 5 -47 35 -141 177 -62 94 -116 176 -120 183 -4 7
7 24 25 40 18 15 46 43 62 60 l30 33 46 -38 c25 -21 105 -82 176 -137z m-2249
108 c-7 -69 -19 -265 -18 -287 1 -22 0 -21 -25 24 -69 124 -113 213 -108 219
11 10 139 90 148 90 4 1 5 -20 3 -46z m3020 -134 c73 -48 135 -92 138 -97 11
-18 -4 -37 -52 -64 -26 -15 -92 -56 -147 -92 -55 -36 -110 -66 -121 -66 -20 0
-24 12 -48 143 -15 78 -29 154 -32 170 -5 23 -1 30 27 45 17 9 43 27 58 39 14
11 30 18 36 15 5 -3 69 -45 141 -93z m-2179 74 c25 -4 42 -19 84 -75 30 -40
48 -73 42 -77 -103 -66 -149 -135 -155 -233 l-2 -38 -110 0 c-122 1 -132 5
-158 60 -42 91 -98 223 -96 225 2 2 75 37 163 79 106 50 167 74 180 70 11 -3
34 -8 52 -11z m621 -18 c29 -14 55 -25 59 -25 5 0 25 -5 46 -11 l38 -10 -6
-246 c-3 -136 -7 -248 -8 -250 -2 -1 -55 14 -118 34 l-114 37 3 70 c3 59 0 81
-21 126 -13 30 -36 67 -51 82 l-28 27 68 95 c38 53 71 96 74 96 4 0 30 -11 58
-25z m-2876 -115 c-48 -59 -96 -119 -107 -133 -33 -41 -69 -25 -117 50 l-39
61 21 39 c11 21 20 43 20 50 0 13 17 19 75 27 22 4 51 8 65 11 14 2 43 7 64
10 22 3 42 7 44 9 2 3 17 0 33 -6 l29 -10 -88 -108z m287 -8 l64 -59 -17 -44
c-10 -24 -18 -66 -17 -92 0 -56 11 -50 -176 -97 l-132 -33 -65 58 c-64 56 -83
93 -56 110 5 3 45 50 87 103 111 138 115 143 142 169 l25 24 40 -40 c23 -21
70 -66 105 -99z m959 126 c5 -7 37 -66 72 -131 l62 -118 -26 -26 c-14 -14 -26
-31 -26 -38 0 -18 -218 -71 -239 -58 -15 10 -17 54 -6 183 2 19 4 54 4 76 1
40 3 43 69 82 76 47 76 47 90 30z m2176 -178 l115 -174 -19 -21 c-11 -12 -20
-33 -20 -47 0 -26 -5 -32 -94 -113 l-50 -45 -26 102 c-15 57 -48 181 -73 276
l-45 172 41 19 c23 10 45 16 49 12 4 -3 59 -85 122 -181z m-4285 131 l54 -48
-49 -64 c-28 -35 -86 -111 -129 -169 -108 -142 -98 -134 -137 -112 -18 10 -50
24 -70 31 -20 7 -35 18 -33 24 4 12 7 47 21 200 l7 77 41 1 c82 1 143 26 192
79 16 16 33 30 39 30 5 0 34 -22 64 -49z m-481 10 c18 -16 53 -38 78 -48 l45
-18 -5 -75 c-4 -41 -9 -102 -12 -135 -4 -33 -7 -64 -7 -70 0 -6 -37 -10 -86
-11 -57 -1 -105 -8 -142 -21 l-57 -19 -37 119 c-33 107 -35 122 -24 150 7 17
12 41 11 53 -1 16 6 25 26 33 15 6 59 24 97 40 39 17 72 30 75 30 3 1 20 -12
38 -28z m5331 3 c26 -10 61 -15 100 -12 l60 3 12 -65 c12 -65 15 -80 24 -122
2 -12 7 -40 10 -63 3 -22 8 -48 11 -57 3 -10 -3 -21 -16 -28 -25 -13 -5 -26
-209 129 -170 129 -161 106 -82 193 39 44 38 43 90 22z m-773 -89 c12 -44 34
-127 49 -185 15 -58 38 -145 52 -193 19 -71 21 -92 12 -104 -30 -36 -46 -35
-174 8 l-125 41 4 162 c2 88 5 202 5 253 l1 92 53 3 c108 6 99 12 123 -77z
m-2152 -82 c-4 -65 -8 -129 -8 -142 -3 -45 -27 -47 -108 -9 l-74 36 -11 54
c-8 39 -8 55 1 60 64 41 193 116 199 117 4 1 5 -52 1 -116z m-1779 32 c7 -5
36 -30 65 -55 76 -64 82 -71 76 -87 -3 -8 -6 -19 -6 -23 0 -8 -353 -250 -363
-250 -2 0 -30 27 -63 60 l-60 59 39 53 c22 29 74 98 115 153 42 55 87 112 101
128 l25 27 30 -27 c16 -16 35 -32 41 -38z m-996 -22 c13 -9 9 -20 -34 -75 -27
-34 -52 -65 -55 -68 -3 -3 -22 -26 -42 -51 -32 -40 -41 -45 -67 -41 -17 2 -31
6 -31 8 0 9 109 183 159 252 l23 33 16 -23 c9 -13 23 -28 31 -35z m3567 35 c4
-13 17 -45 29 -73 66 -146 69 -155 53 -171 -13 -13 -31 -11 -159 21 -79 20
-153 39 -164 41 -63 13 -115 30 -116 39 -2 12 0 13 146 81 66 30 134 62 150
70 42 19 53 17 61 -8z m-2096 -49 c64 -97 63 -99 -84 -99 -87 0 -127 4 -134
13 -7 8 1 28 27 67 34 51 40 55 83 60 26 3 50 9 54 13 11 11 11 11 54 -54z
m4215 -62 c77 -58 150 -114 163 -124 l22 -18 -87 -52 -87 -52 -29 29 c-51 52
-127 52 -179 -1 l-30 -30 -53 36 c-45 31 -54 43 -59 76 -6 39 -4 43 86 148 53
62 97 106 103 101 6 -4 73 -55 150 -113z m-5567 -24 c49 -155 49 -146 5 -179
-37 -27 -112 -104 -113 -114 0 -3 -4 -11 -9 -18 -6 -11 -21 -7 -71 18 -52 26
-61 35 -57 52 3 12 -1 37 -9 56 -12 29 -12 38 -1 51 7 9 49 60 92 115 68 85
99 112 126 115 3 1 20 -43 37 -96z m6205 73 c14 -11 17 -23 13 -57 -8 -65 -18
-211 -17 -237 1 -18 -10 -27 -57 -48 -31 -14 -73 -38 -93 -54 l-36 -29 -49 57
c-27 31 -61 69 -76 85 -21 23 -27 39 -26 68 1 35 6 42 45 65 25 14 92 57 151
95 59 38 112 69 117 69 6 -1 18 -7 28 -14z m-4813 -119 c0 -7 -13 -50 -28 -96
-25 -74 -31 -85 -61 -97 -33 -14 -34 -14 -75 29 -95 100 -104 112 -89 125 7 7
13 22 13 32 0 19 7 20 120 20 92 0 120 -3 120 -13z m2140 -113 c12 -12 12 -14
0 -14 -8 0 -31 4 -50 9 -36 10 -87 17 -220 31 -76 8 -365 6 -410 -3 -14 -3
-47 -8 -73 -12 -27 -4 -56 -8 -65 -10 -120 -24 -175 -39 -261 -67 l-101 -34
33 35 c41 46 63 86 72 134 8 43 8 43 110 -5 35 -16 66 -36 69 -44 9 -22 43
-16 63 11 14 20 39 31 113 50 111 29 120 30 120 11 0 -18 43 -46 70 -46 30 0
67 27 74 54 l6 23 217 -54 c120 -30 225 -61 233 -69z m-2017 55 c31 -28 57
-54 57 -58 0 -4 -20 -12 -45 -18 -49 -11 -43 -17 -75 75 -24 67 -12 67 63 1z
m-56 -94 c-12 -6 -93 -23 -96 -20 -2 3 1 17 7 32 6 15 18 50 28 77 l18 49 23
-68 c13 -38 22 -69 20 -70z m-410 96 c12 -6 33 -11 46 -11 14 0 31 -9 40 -22
9 -13 34 -43 56 -67 23 -24 41 -47 41 -50 0 -7 -80 -31 -125 -38 -11 -2 -31
-8 -45 -13 -14 -5 -77 -23 -140 -39 -63 -16 -140 -37 -170 -45 -30 -8 -55 -14
-56 -13 -1 1 -11 21 -22 43 l-21 42 182 120 c99 67 184 118 187 113 3 -4 15
-13 27 -20z m890 -49 c12 -26 32 -59 44 -73 l21 -26 -38 -82 c-21 -46 -43 -81
-52 -81 -12 0 -58 37 -182 146 -19 17 -51 45 -70 62 -19 17 -33 32 -30 34 9 7
244 66 265 67 14 0 26 -13 42 -47z m1891 -21 c7 -21 23 -55 37 -75 14 -20 25
-39 25 -41 0 -2 -30 7 -67 22 -38 14 -104 36 -148 50 -121 37 -132 41 -113 42
10 1 22 10 28 21 10 18 21 20 119 20 l108 0 11 -39z m-475 10 c547 -83 1007
-361 1329 -801 259 -355 385 -766 372 -1210 -5 -166 -7 -196 -19 -260 -3 -19
-8 -46 -10 -60 -3 -14 -7 -36 -10 -50 -3 -14 -8 -35 -11 -47 -2 -12 -9 -35
-15 -50 -6 -16 -10 -30 -10 -33 3 -31 -73 -221 -140 -354 -70 -137 -195 -323
-268 -397 -9 -9 -39 -40 -67 -70 -106 -112 -268 -243 -389 -315 -27 -16 -59
-34 -70 -41 -22 -14 -110 -56 -195 -96 -60 -27 -172 -66 -260 -90 -87 -24
-148 -35 -315 -56 -70 -9 -406 -8 -422 2 -4 3 -33 8 -63 11 -77 9 -91 12 -215
45 -356 93 -668 278 -926 546 -58 61 -189 219 -189 229 0 3 -20 34 -45 69 -87
124 -197 368 -245 544 -48 177 -65 317 -65 538 1 138 7 211 31 360 9 55 34
159 49 200 77 219 149 374 228 490 122 179 128 186 277 335 127 127 134 133
235 205 142 101 300 187 464 250 97 38 300 90 392 101 30 4 74 10 99 14 68 10
384 4 473 -9z m2462 -27 c20 5 33 -5 82 -61 32 -37 66 -76 76 -87 19 -23 22
-42 6 -52 -24 -14 -80 -116 -94 -171 -9 -32 -16 -83 -16 -114 l-1 -56 -129 -1
c-75 0 -129 3 -129 9 0 18 -40 49 -65 49 -14 0 -25 6 -25 13 0 6 -9 65 -19
130 l-18 119 32 15 c40 19 67 64 70 116 2 38 5 41 79 87 l78 47 25 -24 c17
-18 31 -23 48 -19z m-678 4 l33 -12 0 -118 c0 -92 -3 -118 -14 -118 -13 0 -63
14 -101 29 -11 5 -33 12 -49 17 -21 6 -33 19 -42 44 l-12 35 72 67 c39 37 73
68 75 68 3 0 20 -5 38 -12z m144 -24 c42 -31 49 -40 49 -71 0 -19 5 -43 10
-54 9 -16 2 -24 -57 -62 -37 -24 -74 -42 -80 -39 -10 3 -13 38 -13 126 0 68 3
126 7 129 13 14 37 6 84 -29z m-3640 -7 c20 -17 49 -43 65 -56 105 -89 164
-147 164 -162 0 -16 -119 -112 -156 -126 -8 -3 -25 2 -37 10 -13 8 -36 17 -52
19 -26 3 -31 11 -81 153 -30 83 -52 155 -50 161 4 11 63 31 96 33 8 0 31 -14
51 -32z m2845 -23 l113 -36 -3 -154 c-2 -85 -5 -155 -7 -157 -61 -36 -60 -36
-139 13 -41 25 -75 50 -76 55 -2 25 -18 45 -34 45 -13 0 -23 15 -36 58 -9 31
-21 61 -26 67 -15 17 -8 41 18 66 14 13 32 36 40 52 8 15 20 27 26 27 7 0 63
-16 124 -36z m-2956 -158 c50 -144 52 -152 35 -166 -14 -12 -18 -8 -164 155
-67 75 -71 82 -66 115 8 45 10 46 75 63 l55 13 12 -30 c6 -17 30 -85 53 -150z
m-1900 79 c0 -5 -11 -31 -24 -59 -34 -71 -67 -146 -116 -256 -23 -52 -52 -117
-64 -145 -13 -27 -35 -78 -51 -112 -25 -56 -30 -62 -57 -61 -36 1 -36 -1 33
188 59 159 43 121 165 387 13 29 34 68 45 87 l21 36 24 -29 c13 -16 24 -32 24
-36z m1686 28 c-6 -14 -8 -14 -21 3 -12 17 -11 20 3 25 19 7 27 -4 18 -28z
m759 2 c23 -10 64 -19 96 -19 32 -1 55 -4 52 -9 -2 -4 -25 -17 -51 -28 -26
-12 -86 -46 -134 -75 -48 -30 -90 -54 -93 -54 -2 0 -3 13 -1 28 4 35 73 185
83 180 5 -2 26 -12 48 -23z m-795 -15 c23 -33 26 -17 -36 -202 l-27 -78 -166
4 c-91 3 -205 5 -253 5 l-88 1 0 43 c0 23 -4 57 -9 74 -8 26 -6 33 7 37 9 3
112 30 227 61 116 31 230 63 255 70 63 19 66 19 90 -15z m-1475 -9 c54 -31 54
-30 30 -111 -40 -140 -5 -301 89 -405 20 -22 36 -45 36 -50 0 -12 -199 -309
-210 -313 -8 -3 -102 39 -265 119 -68 33 -83 45 -98 79 -18 38 -18 39 6 92 13
29 48 107 77 173 29 66 69 156 89 200 21 44 50 110 66 148 18 40 36 67 45 67
8 1 26 7 40 15 33 19 37 18 95 -14z m4943 -11 c56 -19 102 -36 102 -39 0 -4
-30 -33 -67 -66 -37 -33 -88 -79 -114 -102 -25 -24 -48 -43 -51 -43 -3 0 -3
61 1 244 1 34 5 47 14 44 6 -3 58 -20 115 -38z m-468 -85 c16 -47 24 -125 13
-125 -1 0 -35 24 -76 53 -41 28 -97 66 -125 82 l-51 30 63 1 c43 0 75 7 102
21 45 23 45 23 74 -62z m667 48 c-3 -3 -15 -2 -27 2 -20 6 -21 7 -3 20 15 11
19 11 26 -2 5 -8 7 -17 4 -20z m-3518 -109 c55 -62 101 -114 101 -116 0 -5
-282 1 -287 6 -2 2 5 27 16 57 11 30 27 80 37 112 9 32 20 56 24 55 4 -2 53
-53 109 -114z m3544 16 l14 -58 -165 -56 c-151 -51 -167 -55 -182 -41 -14 15
-13 18 5 31 10 8 53 45 95 83 155 141 139 130 181 113 34 -13 38 -20 52 -72z
m424 60 c21 -11 43 -20 50 -20 13 0 21 -19 27 -65 2 -17 9 -67 16 -112 7 -46
9 -94 6 -108 l-7 -26 -52 43 c-29 24 -57 47 -64 53 -7 5 -44 35 -82 65 -60 47
-69 59 -65 80 5 25 29 48 93 87 20 11 37 22 39 22 1 1 19 -8 39 -19z m-348
-30 c98 -31 99 -33 26 -57 -45 -15 -67 -18 -72 -10 -6 10 -22 87 -18 87 1 0
30 -9 64 -20z m101 -63 c0 -7 -10 -23 -22 -37 -13 -14 -38 -42 -56 -63 -20
-24 -34 -33 -37 -25 -19 57 -23 89 -12 93 7 2 37 13 67 24 30 10 56 20 58 20
1 1 2 -5 2 -12z m-3228 -8 c-4 -3 -38 -29 -77 -59 -74 -57 -262 -240 -311
-303 l-29 -38 0 28 c0 16 19 62 43 104 41 71 46 76 78 76 42 0 72 25 80 68 3
20 16 38 32 48 15 8 36 23 47 31 11 9 31 25 45 35 16 13 38 19 62 18 20 -1 34
-5 30 -8z m3323 -58 c17 -14 48 -39 69 -56 77 -60 161 -130 179 -149 17 -19
16 -21 -31 -70 -27 -28 -72 -75 -99 -105 l-51 -54 -44 17 c-24 10 -66 18 -93
19 l-49 2 -14 50 c-7 28 -19 73 -27 100 -44 161 -47 143 33 234 59 67 63 68
127 12z m-245 -5 c25 -66 23 -89 -12 -127 -66 -72 -95 -105 -150 -170 -68 -81
-73 -80 -152 31 -54 75 -54 75 -36 100 10 14 20 39 22 55 3 28 9 31 153 82 83
28 153 52 158 52 4 1 12 -10 17 -23z m-594 -12 c47 -31 68 -43 92 -56 18 -9
22 -17 17 -38 -8 -35 26 -77 68 -85 44 -9 132 -132 133 -187 1 -37 1 -37 -14
-15 -9 12 -18 24 -21 27 -4 3 -32 37 -63 75 -57 71 -202 216 -270 271 l-37 30
33 -1 c18 -1 46 -10 62 -21z m-3199 -37 c4 -5 -66 -220 -75 -228 -4 -4 -25 -4
-47 0 -72 13 -173 -20 -227 -74 l-27 -27 -96 68 c-52 38 -95 72 -95 76 0 4 8
22 18 40 16 30 28 64 48 136 l6 23 246 -5 c135 -4 247 -8 249 -9z m351 -38
l17 -34 -45 -77 c-25 -43 -49 -76 -55 -74 -18 6 -45 -14 -45 -33 0 -14 -19
-25 -81 -45 l-82 -27 -31 29 c-17 16 -41 35 -53 41 -13 7 -23 17 -23 24 0 7
16 63 37 125 l36 112 154 -3 154 -4 17 -34z m5213 -9 c2 -16 5 -22 22 -62 10
-21 17 -42 17 -48 0 -6 4 -18 9 -28 13 -24 58 -167 92 -289 24 -91 25 -102 10
-93 -12 6 -26 5 -43 -4 -23 -12 -29 -9 -105 58 -44 39 -92 80 -107 91 -32 24
-32 36 -3 72 60 72 95 171 93 257 0 31 2 56 7 56 4 0 8 -4 8 -10z m-1701 -164
c17 -63 30 -121 30 -129 0 -8 -12 -18 -27 -22 -27 -6 -95 -51 -101 -67 -6 -13
-21 -9 -103 29 -43 20 -79 42 -79 49 0 12 55 80 183 227 40 46 52 55 59 43 4
-8 22 -66 38 -130z m801 53 c5 -8 12 -25 14 -39 17 -78 87 -178 165 -235 27
-20 50 -42 50 -47 0 -6 -14 -55 -30 -108 l-31 -96 -55 -1 -55 -1 -170 256
c-93 140 -168 261 -165 268 6 16 36 19 164 18 78 0 106 -4 113 -15z m-290 -44
c24 -29 320 -475 324 -488 3 -7 -9 -27 -26 -46 l-31 -34 -167 37 c-91 21 -174
39 -184 41 -51 11 -52 13 -53 78 -1 74 -30 141 -81 191 l-33 32 101 107 c60
63 108 106 118 105 9 -2 23 -12 32 -23z m-4855 -76 c46 -34 84 -67 84 -74 0
-6 -7 -26 -15 -43 -19 -37 -27 -129 -16 -169 10 -33 13 -30 -96 -106 l-82 -57
-90 181 c-50 100 -89 184 -87 188 3 4 25 17 49 29 24 12 66 44 93 70 27 27 55
47 62 45 8 -2 52 -31 98 -64z m-721 -19 c4 -6 29 -22 56 -36 27 -13 48 -28 46
-32 -3 -4 -8 -52 -12 -107 -5 -55 -9 -116 -11 -135 -1 -19 -3 -46 -4 -60 0
-14 -11 -32 -23 -41 -22 -16 -27 -15 -97 17 -41 19 -101 47 -132 63 l-58 28
53 79 c168 250 167 249 182 224z m1485 -8 c0 -2 -13 -21 -28 -41 -16 -20 -46
-64 -68 -99 -69 -112 -69 -112 -69 -45 0 40 -7 71 -23 101 -16 31 -19 44 -10
47 84 32 129 43 161 42 20 -1 37 -3 37 -5z m-1285 -72 c77 -6 161 0 182 13 15
9 199 -371 187 -383 -6 -6 -78 -60 -159 -119 l-148 -109 -29 17 c-31 17 -118
165 -124 209 -1 13 -7 29 -13 36 -6 7 -9 15 -7 17 2 2 6 40 10 84 15 190 19
231 25 253 1 1 9 -1 19 -6 9 -5 35 -10 57 -12z m4665 -46 c39 -19 70 -38 68
-42 -29 -54 -41 -96 -42 -144 -1 -32 -2 -58 -3 -58 0 0 -22 39 -48 88 -26 48
-63 111 -81 140 -19 29 -34 54 -34 57 0 13 78 -9 140 -41z m1762 9 c2 -5 28
-29 58 -55 107 -90 149 -133 152 -156 3 -20 -8 -28 -92 -63 -160 -68 -171 -71
-189 -55 -39 35 -121 19 -142 -28 -6 -13 -19 -26 -28 -28 -13 -3 -236 -2 -262
1 -4 1 -9 12 -13 24 -3 13 -18 36 -32 51 l-27 27 32 101 c18 57 34 104 36 107
3 2 33 -4 67 -14 136 -39 287 -11 391 73 30 23 43 27 49 15z m-7077 -108 c86
-41 161 -75 167 -75 21 0 -1 -39 -111 -203 -105 -155 -114 -165 -136 -157 -12
5 -43 12 -66 15 -24 4 -45 7 -45 8 -1 1 -5 45 -9 97 -3 52 -8 102 -10 110 -2
8 -7 53 -10 100 -4 47 -9 93 -11 103 -2 12 5 21 21 27 13 5 30 18 37 30 7 11
13 20 14 20 1 0 72 -34 159 -75z m-259 25 c5 0 10 -8 10 -17 1 -37 16 -208 19
-213 1 -3 6 -48 10 -100 3 -52 8 -97 11 -101 2 -4 -24 -16 -57 -28 -42 -16
-75 -37 -108 -71 l-48 -48 8 51 c4 29 10 72 13 97 9 70 26 158 46 245 6 28 13
57 15 65 1 8 7 33 13 55 5 22 13 53 16 69 7 26 8 27 25 12 10 -9 22 -16 27
-16z m608 -189 c75 -35 136 -70 136 -77 0 -27 -110 -199 -128 -199 -9 0 -21
-11 -27 -24 -7 -17 -39 -37 -105 -68 -146 -69 -136 -67 -160 -27 -24 38 -37
52 -76 83 l-27 21 119 180 c65 99 122 178 125 177 4 -1 68 -31 143 -66z m920
26 c45 -68 131 -116 212 -119 l34 -1 0 -111 c-1 -72 -5 -116 -13 -126 -20 -26
-249 -128 -254 -114 -2 5 -45 93 -97 196 l-94 188 87 64 c47 36 88 65 91 65 3
0 18 -19 34 -42z m6156 -114 c12 -65 23 -127 24 -138 2 -11 6 -42 10 -70 3
-27 8 -68 11 -90 l5 -39 -24 35 c-64 93 -213 140 -318 100 -29 -11 -32 -16
166 256 20 27 39 42 53 43 12 0 25 5 28 10 15 24 24 3 45 -107z m-120 102 c0
-10 -232 -325 -240 -325 -4 0 -20 20 -35 45 l-26 45 21 27 c15 19 20 39 18 66
-2 39 -2 39 52 61 49 21 92 39 170 74 28 12 40 14 40 7z m-5636 -102 c-19 -49
-48 -131 -64 -183 -16 -52 -29 -87 -29 -78 -1 10 -10 22 -21 28 -18 10 -20 21
-20 118 l0 107 51 18 c27 10 64 31 82 47 18 16 33 30 34 30 0 0 -14 -39 -33
-87z m4425 27 c101 -22 187 -43 191 -45 4 -2 7 -20 8 -39 1 -20 8 -46 17 -59
17 -27 16 -33 -32 -133 -19 -41 -42 -74 -52 -77 -15 -4 -127 75 -251 176 -8 6
-45 36 -83 65 l-67 54 18 26 c10 15 23 39 30 54 6 15 17 26 24 23 7 -2 96 -22
197 -45z m-4954 -210 l96 -191 -36 -15 c-20 -8 -64 -27 -98 -43 -160 -73 -165
-75 -183 -57 -15 16 -68 47 -79 46 -63 -2 -60 -4 -99 89 -34 82 -36 92 -23
116 12 24 300 245 319 245 4 0 51 -86 103 -190z m-545 84 c28 -52 49 -101 46
-109 -4 -10 -31 -14 -109 -17 -133 -4 -140 -2 -133 27 12 46 105 191 125 192
13 1 32 -23 71 -93z m4890 6 c20 -10 53 -21 73 -25 20 -4 37 -9 37 -12 0 -19
-67 -151 -81 -161 -26 -18 -24 -47 6 -69 19 -14 31 -40 51 -117 l25 -99 -30
-29 c-46 -45 -41 -97 11 -124 47 -25 97 -5 112 44 6 18 13 21 39 17 31 -4 93
-9 292 -21 55 -4 109 -8 120 -9 11 -1 30 -3 42 -4 12 0 24 -9 27 -18 2 -10 7
-28 11 -40 4 -15 2 -23 -5 -23 -27 0 -82 -35 -98 -62 l-17 -30 -85 6 c-47 4
-125 9 -175 12 -114 7 -117 8 -134 45 -23 53 -87 65 -126 23 -32 -34 -32 -74
0 -108 l25 -27 -26 -67 c-14 -37 -34 -95 -45 -128 -10 -34 -28 -73 -39 -87
-25 -32 -25 -53 0 -67 18 -10 20 -21 20 -120 0 -81 -3 -110 -12 -110 -27 0
-115 -49 -146 -81 l-34 -34 27 60 c38 84 80 201 104 288 20 73 26 100 37 166
3 18 8 43 10 55 26 122 25 430 -1 624 -11 80 -60 268 -92 352 l-24 65 33 -33
c17 -19 48 -42 68 -52z m1374 9 c17 -39 50 -59 96 -59 25 0 35 -8 60 -47 16
-27 30 -53 30 -59 0 -17 -41 -30 -188 -60 -102 -20 -136 -23 -146 -14 -8 6
-27 12 -43 14 -22 2 -41 20 -87 79 l-58 76 21 29 c12 17 21 39 21 50 0 11 6
22 13 25 6 2 69 4 139 3 l126 -1 16 -36z m-884 -91 c85 -66 168 -132 184 -145
l29 -24 -84 6 c-46 3 -120 7 -164 10 -350 19 -364 20 -378 34 -7 7 -1 33 24
88 l34 77 53 11 c28 7 69 24 89 38 21 14 43 26 48 26 6 0 80 -54 165 -121z
m410 -2 c28 -8 53 -10 68 -5 12 5 22 6 22 2 0 -3 6 0 14 6 11 9 26 -5 75 -69
34 -44 59 -84 56 -90 -8 -13 -355 -14 -355 -1 0 5 17 46 38 90 20 45 37 81 37
81 0 0 20 -6 45 -14z m-5729 -78 c16 -7 33 -24 38 -38 6 -14 22 -52 35 -85 14
-33 26 -64 26 -68 0 -4 -15 -24 -34 -43 -19 -20 -36 -46 -38 -57 -3 -24 -27
-28 -88 -16 -19 4 -57 10 -85 14 -91 11 -89 9 -100 100 -9 76 -15 117 -21 153
-3 18 -3 36 0 41 9 14 234 14 267 -1z m-289 -27 c0 -9 2 -20 3 -26 8 -56 17
-116 21 -145 3 -19 7 -45 10 -58 4 -19 1 -22 -18 -18 -20 4 -104 18 -203 32
-81 12 -81 12 -79 52 1 20 -2 47 -7 59 -7 18 -3 24 29 37 20 8 75 33 122 54
86 39 119 43 122 13z m1145 -12 c8 -8 -1 -46 -34 -143 -25 -72 -48 -134 -52
-138 -3 -4 -18 -10 -33 -13 -25 -6 -28 -2 -77 95 -28 56 -51 104 -51 106 0 2
35 20 78 39 42 19 91 42 107 49 37 18 48 19 62 5z m49 -80 c-27 -150 -35 -251
-30 -419 3 -91 6 -178 9 -195 6 -49 16 -109 20 -125 2 -8 7 -31 10 -50 9 -54
51 -197 80 -275 l26 -70 -43 42 c-45 44 -117 82 -155 83 -13 0 -23 4 -23 10 0
20 66 146 83 158 24 18 18 54 -10 67 -20 9 -42 70 -59 165 -3 14 -7 32 -10 42
-3 9 3 22 14 30 47 33 53 84 15 122 -40 40 -114 24 -127 -29 -5 -20 -11 -24
-29 -21 -12 3 -62 8 -112 10 -232 14 -297 18 -313 21 -9 2 -26 4 -38 4 -20 1
-44 36 -44 65 0 7 17 18 39 24 26 8 46 24 62 47 l24 36 110 -7 c61 -3 118 -8
128 -10 10 -1 46 -4 82 -5 57 -2 64 -4 69 -25 16 -61 85 -81 132 -37 31 29 31
72 0 106 l-25 26 49 135 c42 118 68 171 78 161 2 -1 -4 -40 -12 -86z m5420 43
c-27 -52 -38 -137 -25 -184 5 -17 3 -30 -4 -36 -7 -5 -82 -34 -167 -65 -200
-71 -199 -72 -156 79 27 95 33 107 57 116 17 6 32 21 38 38 6 18 19 31 33 34
13 3 61 13 108 23 47 11 95 20 108 21 21 2 22 0 8 -26z m-1236 -6 c152 -9 312
-18 350 -21 19 -2 48 -4 64 -4 38 -1 29 -10 -59 -56 -38 -21 -97 -52 -130 -70
-293 -157 -277 -150 -295 -128 -9 11 -26 23 -37 27 -17 5 -25 22 -38 74 -9 37
-21 85 -26 107 -6 21 -8 49 -4 62 4 19 10 21 43 18 20 -2 80 -6 132 -9z m874
-51 c21 -32 21 -39 -10 -151 -16 -56 -33 -98 -43 -104 -17 -9 -30 3 -228 193
-40 38 -70 73 -67 78 3 5 79 9 168 9 163 0 164 0 180 -25z m-5319 -114 c50
-100 53 -111 39 -126 -9 -8 -19 -13 -22 -11 -4 2 -61 7 -127 11 -66 4 -131 9
-145 10 -14 2 -39 3 -57 4 -24 1 -31 5 -31 19 1 9 -1 29 -5 43 -8 30 -18 23
158 102 84 37 117 51 132 56 2 1 28 -48 58 -108z m4911 -20 c1 -148 -6 -164
-69 -156 -39 4 -101 8 -307 21 -140 8 -160 -10 180 171 96 51 180 91 185 90 6
-2 10 -54 11 -126z m188 -15 c75 -71 136 -133 136 -137 0 -5 -59 -9 -130 -9
-105 0 -132 3 -136 15 -3 8 -13 17 -22 19 -15 5 -17 21 -15 118 1 62 2 117 2
121 2 21 38 -7 165 -127z m-6209 18 c33 -5 62 -9 65 -9 20 -5 127 -19 133 -17
4 1 11 -8 16 -20 11 -26 34 -198 28 -204 -4 -4 -150 58 -285 122 -40 19 -77
34 -83 34 -6 0 -9 3 -7 8 2 4 12 29 22 55 14 34 23 46 35 43 9 -3 43 -8 76
-12z m-571 -111 c15 -18 41 -41 57 -50 l29 -17 0 -451 0 -450 -25 -11 c-26
-13 -30 -8 -40 48 -3 13 -7 34 -10 48 -7 32 -11 54 -20 110 -4 25 -9 54 -11
64 -2 11 -6 44 -9 75 -3 31 -10 97 -16 146 -6 50 -12 198 -14 330 -4 228 -3
239 13 215 9 -13 30 -39 46 -57z m979 47 c82 -14 81 -13 101 -76 6 -19 -1 -24
-46 -43 -29 -12 -75 -32 -101 -45 -43 -20 -96 -25 -97 -7 -1 3 -7 48 -14 98
-7 51 -11 95 -9 97 2 2 23 0 46 -4 23 -4 77 -13 120 -20z m6400 -35 c34 -53
95 -98 156 -115 l42 -11 -7 -62 c-4 -34 -6 -70 -6 -79 0 -10 -6 -18 -14 -18
-28 0 -92 -40 -121 -75 l-29 -35 -55 10 c-30 5 -73 12 -97 15 -23 3 -82 12
-130 20 -48 8 -90 15 -94 15 -6 0 -22 66 -34 145 -3 22 -6 42 -7 45 -1 3 5 20
13 37 13 29 27 37 130 74 63 23 135 50 160 60 25 10 50 18 55 18 6 0 23 -20
38 -44z m493 -197 c-3 -134 -7 -252 -9 -263 -3 -11 -8 -47 -11 -80 -13 -126
-17 -161 -22 -187 -12 -77 -15 -97 -25 -148 -18 -98 -72 -310 -78 -310 -3 0
-14 7 -25 15 -18 14 -29 87 -50 340 -4 39 -9 93 -12 122 -6 49 -5 52 22 66 87
45 128 159 88 244 -26 53 -71 92 -121 105 l-45 11 6 75 c3 41 7 76 8 77 2 2
23 6 47 9 25 3 63 15 85 27 45 23 116 87 116 104 0 10 19 35 27 35 2 0 1 -109
-1 -242z m-7290 121 c213 -95 224 -100 224 -110 0 -9 -72 -57 -150 -101 -25
-14 -71 -41 -102 -61 -31 -21 -61 -37 -65 -37 -4 0 -19 -9 -33 -20 -25 -19
-25 -19 -45 0 -12 11 -38 26 -60 33 -26 9 -41 21 -46 38 -9 33 -29 144 -36
195 -5 40 -3 42 24 48 16 4 51 24 78 45 28 22 50 40 51 40 1 1 73 -31 160 -70z
m566 -18 c42 -17 58 -57 30 -78 -20 -16 -282 -18 -282 -3 0 6 1 10 3 10 1 0
47 20 102 45 55 25 102 44 105 42 3 -1 21 -8 42 -16z m-937 -11 l31 0 18 -97
c31 -173 33 -155 -23 -181 -140 -65 -110 -268 44 -296 15 -3 29 -6 30 -8 3 -3
-175 -252 -194 -271 -8 -8 -11 100 -11 430 l0 441 38 -9 c20 -5 51 -9 67 -9z
m6713 0 c7 -11 18 -20 25 -20 7 0 13 -8 14 -18 2 -26 23 -143 30 -166 6 -20 6
-20 -127 -1 -115 16 -120 18 -120 42 0 28 -48 81 -85 93 -24 8 -37 19 -41 37
-12 45 14 53 161 53 119 0 131 -2 143 -20z m-5749 -126 c22 -23 24 -33 25
-130 1 -114 -3 -131 -27 -118 -25 14 -277 255 -277 265 0 5 57 9 128 9 123 0
128 -1 151 -26z m266 10 c61 -3 121 -8 135 -9 14 -2 49 -3 78 -4 58 -1 66 -11
25 -28 -16 -7 -64 -32 -108 -56 -248 -137 -335 -181 -343 -173 -4 4 -8 60 -8
124 -2 145 6 164 69 158 23 -3 92 -8 152 -12z m-622 -44 c-3 -58 -45 -191 -62
-197 -27 -10 -51 -35 -51 -55 0 -10 -2 -18 -4 -18 -5 0 -192 -38 -222 -45 -19
-4 -20 0 -22 53 0 31 -2 65 -4 76 -2 14 34 41 167 121 94 57 177 103 185 101
10 -1 14 -12 13 -36z m173 -76 c141 -132 174 -166 170 -173 -3 -5 -79 -9 -170
-10 l-164 -1 -17 27 c-17 26 -17 30 6 127 14 57 32 109 43 119 18 19 19 18 60
-21 22 -22 55 -52 72 -68z m5239 82 c106 -7 239 -17 242 -20 0 0 3 -21 4 -45
l3 -44 -89 -39 c-50 -21 -114 -50 -143 -63 -29 -14 -54 -25 -57 -25 -4 0 -115
216 -115 225 0 7 43 24 50 20 3 -2 50 -6 105 -9z m-4485 -4 c0 -5 15 -17 34
-27 31 -17 36 -26 56 -104 12 -47 24 -97 26 -109 6 -32 -4 -62 -19 -57 -7 2
-73 6 -147 10 -198 9 -331 16 -365 20 -16 2 -43 4 -59 4 -38 1 -30 8 67 60 42
22 112 60 155 83 248 134 252 136 252 120z m4369 -133 c28 -55 49 -104 46
-109 -3 -4 -55 -29 -116 -55 -151 -64 -152 -62 -90 113 47 132 58 149 98 151
6 1 34 -44 62 -100z m793 60 l87 -12 10 -51 c6 -28 13 -67 16 -86 3 -19 10
-59 16 -87 6 -29 8 -57 5 -61 -8 -13 -244 -11 -272 2 -16 8 -34 37 -59 96 -19
47 -35 89 -35 93 0 4 16 23 35 43 22 22 35 44 35 61 0 24 2 25 38 19 20 -3 76
-11 124 -17z m203 -34 c17 -3 50 -8 75 -11 78 -10 202 -33 206 -37 3 -2 2 -23
-2 -46 -5 -30 -13 -45 -28 -51 -12 -5 -77 -33 -145 -64 -68 -30 -130 -52 -137
-49 -14 5 -25 51 -50 208 -10 66 -10 68 24 61 15 -3 41 -8 57 -11z m-605 -24
c0 -16 88 -53 117 -49 25 3 29 -3 65 -87 33 -77 37 -94 27 -117 -7 -16 -66
-67 -157 -133 -80 -59 -152 -109 -158 -112 -12 -4 -194 343 -194 370 0 7 13
18 29 25 129 57 257 111 264 112 4 0 7 -4 7 -9z m-232 -319 c51 -103 92 -192
92 -198 0 -10 -29 -34 -99 -82 -18 -13 -40 -30 -48 -38 -21 -20 -25 -18 -57
29 -45 68 -131 116 -212 119 l-34 1 0 114 c0 98 2 115 19 129 15 13 225 112
241 113 3 0 47 -84 98 -187z m1138 152 c9 -19 32 -47 50 -60 l33 -26 -121
-181 c-67 -100 -128 -189 -135 -199 -13 -15 -26 -10 -154 50 -76 36 -139 71
-139 77 0 7 24 53 53 103 34 60 59 92 72 94 11 2 25 15 32 29 8 17 35 36 80
57 38 17 97 44 133 61 36 16 68 30 72 30 4 1 15 -15 24 -35z m-6290 17 c42 -1
45 -2 38 -23 -5 -19 -63 -145 -71 -157 -1 -2 -15 1 -30 8 -34 13 -68 16 -108
6 -28 -6 -33 -2 -88 70 -42 54 -56 79 -49 88 7 8 48 11 136 10 69 -1 147 -2
172 -2z m384 -16 c63 -4 133 -8 155 -10 22 -2 72 -5 110 -6 70 -2 105 -11 105
-29 0 -6 -16 -44 -35 -85 -31 -67 -37 -75 -62 -75 -33 0 -122 -40 -142 -63
-15 -19 8 -34 -266 182 l-130 103 75 -6 c41 -3 127 -8 190 -11z m-776 -9 c11
-8 29 -12 38 -11 11 2 36 -21 71 -63 71 -89 72 -90 54 -110 -8 -9 -19 -33 -24
-52 l-9 -35 -137 -1 -136 -1 -10 27 c-15 44 -50 70 -93 70 -32 0 -41 5 -63 37
-31 46 -30 44 -1 76 18 20 46 30 137 49 143 29 147 30 173 14z m693 -145 l183
-142 -23 -37 c-13 -20 -26 -44 -29 -53 -6 -14 -27 -12 -190 24 -232 50 -228
49 -228 88 0 17 -7 46 -15 63 -15 32 -14 35 24 119 39 81 60 104 86 87 6 -4
92 -71 192 -149z m5606 40 c11 -11 6 -25 -31 -86 -9 -16 -30 -51 -45 -76 -41
-69 -58 -62 -117 46 -63 116 -63 123 -2 127 81 5 185 -1 195 -11z m588 -11 c0
-14 2 -33 4 -42 2 -9 6 -54 9 -100 4 -46 9 -94 11 -108 2 -14 7 -59 10 -100 3
-41 7 -87 9 -102 2 -17 -2 -28 -9 -28 -7 0 -24 -9 -38 -20 -14 -11 -30 -20
-35 -20 -6 0 -73 30 -149 66 -76 36 -148 70 -161 75 -22 8 -19 14 79 161 173
259 161 247 219 245 46 -2 50 -4 51 -27z m-7216 -25 l26 -45 -20 -27 c-14 -16
-21 -41 -21 -67 0 -40 -2 -42 -48 -60 -26 -10 -65 -27 -87 -36 -87 -39 -118
-50 -123 -46 -9 10 227 326 244 326 1 0 14 -20 29 -45z m6347 10 c3 3 12 -3
20 -12 19 -22 101 -180 108 -208 11 -44 -3 -323 -19 -383 -1 -1 -10 2 -21 8
-23 12 -149 16 -206 6 l-42 -7 -91 182 c-51 100 -90 187 -87 194 4 10 101 84
260 196 32 23 55 33 62 28 6 -5 13 -7 16 -4z m-5899 -164 c9 0 17 -8 17 -16 0
-8 14 -30 30 -48 17 -19 30 -39 30 -43 0 -5 -14 -52 -31 -105 l-32 -97 -50 15
c-27 8 -84 14 -126 14 -107 0 -178 -26 -287 -106 -20 -14 -25 -11 -105 57
-125 108 -147 131 -151 156 -3 21 10 28 126 78 124 52 130 54 154 38 49 -32
120 -16 146 34 l14 27 123 -1 c68 -1 132 -2 142 -3z m501 -74 l189 -42 3 -60
c1 -33 7 -75 13 -94 11 -35 53 -95 84 -121 17 -14 15 -18 -40 -76 -32 -34 -77
-82 -99 -106 -53 -57 -73 -57 -114 2 -36 53 -293 439 -304 457 -9 16 43 83 64
82 8 0 100 -19 204 -42z m5136 -200 c46 -92 81 -168 79 -170 -2 -1 -26 -13
-52 -26 -27 -14 -72 -46 -100 -73 l-51 -48 -46 32 c-25 18 -68 49 -96 70 l-52
37 21 41 c21 44 31 148 17 186 -7 17 1 27 47 60 30 21 71 51 91 67 43 33 33
46 142 -176z m580 148 c30 -14 77 -37 103 -49 l48 -23 -97 -144 c-120 -179
-118 -177 -141 -157 -10 9 -34 24 -53 33 -19 10 -38 22 -41 26 -3 5 -2 39 2
76 4 38 10 110 14 162 6 79 11 97 28 111 23 19 24 19 137 -35z m-4931 -60
c143 -271 379 -544 596 -690 33 -22 66 -45 73 -52 19 -19 198 -117 282 -156
149 -68 396 -140 527 -153 31 -3 61 -7 65 -10 16 -10 345 -12 428 -3 75 9 190
27 271 44 63 12 271 86 350 124 48 22 89 41 91 41 5 0 161 92 192 112 263 180
510 448 642 696 14 26 22 36 18 23 -15 -56 -13 -126 7 -184 11 -33 19 -60 17
-62 -13 -11 -139 -44 -164 -43 -42 1 -53 -7 -49 -40 2 -18 -12 -52 -44 -105
-42 -71 -48 -77 -72 -72 -34 8 -80 -30 -82 -67 -2 -21 -20 -39 -87 -86 -61
-43 -88 -58 -97 -50 -15 12 -53 1 -54 -15 -3 -49 -72 -212 -86 -205 -64 32
-96 41 -153 41 -94 0 -135 -15 -198 -75 -38 -35 -82 -119 -82 -155 0 -13 -2
-23 -5 -23 -20 0 -135 56 -157 77 -30 29 -59 27 -73 -4 -7 -17 -30 -26 -115
-47 l-105 -25 -21 25 c-42 48 -126 36 -140 -21 l-6 -23 -91 24 c-51 14 -101
26 -112 28 -84 16 -232 60 -241 72 -16 20 -52 17 -64 -6 -10 -18 -21 -20 -120
-20 l-109 0 -10 38 c-23 82 -94 157 -178 186 -50 17 -148 13 -198 -8 -22 -9
-42 -16 -45 -15 -13 5 -42 99 -46 148 -2 30 -6 56 -8 59 -3 2 -18 5 -34 6 -17
1 -63 21 -104 45 -69 40 -74 46 -75 78 -1 42 -24 69 -66 78 -45 9 -141 144
-132 185 7 31 -16 63 -39 54 -7 -3 -52 13 -99 34 l-86 40 24 58 c24 59 29 144
10 189 -16 40 3 8 54 -90z m-909 -183 c94 -140 169 -261 166 -268 -6 -16 -2
-15 -146 -16 l-105 -1 -18 49 c-44 122 -122 223 -207 268 l-35 18 33 103 34
103 54 0 54 0 170 -256z m-960 38 c47 -40 89 -76 93 -80 4 -4 -3 -20 -16 -36
-65 -80 -101 -188 -95 -290 2 -35 0 -60 -3 -56 -3 4 -21 45 -39 92 -18 47 -36
94 -40 105 -13 33 -67 206 -85 270 -9 33 -18 67 -21 76 -3 12 2 17 21 17 15 0
32 5 38 11 8 8 18 5 36 -12 15 -13 64 -57 111 -97z m7108 59 c70 -34 144 -68
165 -76 29 -12 43 -26 58 -59 l20 -42 -34 -79 c-19 -43 -47 -105 -62 -138 -75
-163 -95 -208 -140 -312 -28 -65 -54 -113 -62 -113 -8 0 -28 -7 -44 -16 -29
-14 -34 -14 -72 4 -76 36 -79 41 -62 89 54 155 22 325 -83 443 l-39 45 106
157 c58 86 110 157 114 158 4 0 65 -27 135 -61z m-5255 -126 c42 -20 77 -43
77 -50 0 -8 -53 -75 -117 -149 -91 -103 -119 -130 -126 -119 -10 19 -67 234
-67 255 0 9 15 21 34 28 19 7 51 26 71 42 21 17 41 30 44 30 3 0 41 -17 84
-37z m-419 -30 c3 -4 12 -8 19 -10 50 -12 96 -18 115 -17 28 2 28 1 72 -173
l34 -131 -63 -71 c-57 -64 -65 -70 -84 -59 -27 14 -262 204 -294 237 -13 13
-21 27 -17 30 3 3 47 50 97 104 87 92 105 106 121 90z m5991 -42 c-4 -9 -24
-63 -44 -121 -57 -157 -105 -270 -178 -418 l-66 -134 -25 25 -25 25 38 89 c21
48 41 95 45 103 15 29 62 132 79 173 10 23 32 71 48 107 16 36 40 88 53 117
20 45 26 51 52 51 22 -1 28 -5 23 -17z m-1946 -27 c13 -14 37 -32 53 -40 15
-8 28 -21 28 -28 0 -7 -16 -63 -36 -124 l-35 -111 -155 3 c-85 2 -155 5 -157
7 -36 62 -36 59 13 139 31 52 53 76 68 78 13 2 24 13 28 26 4 18 22 29 77 49
91 31 87 31 116 1z m459 -7 c161 -114 153 -106 129 -142 -17 -25 -45 -102 -50
-135 l-4 -25 -248 2 c-136 2 -249 4 -251 6 -4 4 65 220 74 229 4 3 23 3 42 -1
70 -15 181 20 231 73 13 14 25 26 27 26 1 0 24 -15 50 -33z m-3931 -41 c86
-117 82 -110 62 -137 -9 -13 -19 -37 -21 -53 -3 -28 -10 -31 -143 -78 -193
-69 -179 -68 -194 -3 l-12 55 33 39 c172 203 204 237 220 233 10 -2 35 -27 55
-56z m-897 -137 c0 -16 44 -49 66 -49 18 0 22 -7 28 -47 3 -27 13 -85 20 -131
l13 -84 -32 -15 c-40 -19 -69 -66 -71 -118 -1 -38 -4 -41 -79 -86 l-78 -45
-24 24 c-17 17 -31 22 -47 18 -19 -5 -34 7 -87 65 -85 95 -87 101 -54 136 63
66 103 176 107 289 0 21 2 42 4 45 5 9 234 8 234 -2z m338 -176 c7 -7 21 -18
32 -26 34 -24 15 -62 -55 -107 l-63 -41 -38 20 c-21 12 -44 21 -51 21 -13 0
-18 15 -28 80 -4 25 -9 54 -11 65 -3 16 -14 95 -17 125 0 3 3 13 7 22 7 15 24
5 109 -64 56 -46 108 -88 115 -95z m247 27 c4 -22 7 -43 6 -46 0 -11 -131 -54
-131 -43 0 14 103 137 112 133 3 -2 9 -22 13 -44z m385 35 c9 -11 9 -17 -2
-27 -11 -11 -129 -116 -215 -192 -20 -17 -27 -18 -61 -8 -36 11 -40 16 -55 69
-9 31 -16 58 -14 59 2 1 192 68 292 102 41 14 41 14 55 -3z m215 -49 c33 -18
55 -38 50 -47 -3 -4 8 -18 25 -31 22 -17 38 -46 56 -96 l25 -72 -26 -28 c-15
-15 -33 -39 -41 -54 -8 -16 -20 -28 -27 -28 -16 0 -208 63 -225 73 -9 7 -11
43 -8 155 2 81 5 150 5 153 1 4 12 10 26 13 14 4 25 11 25 17 0 6 21 -2 48
-17 26 -15 56 -32 67 -38z m3180 22 c4 -3 -64 -220 -72 -228 -2 -2 -18 12 -36
31 -122 135 -177 198 -177 201 0 5 280 1 285 -4z m531 -11 c1 -1 3 -35 5 -76
l4 -74 -30 -9 c-16 -5 -39 -11 -50 -13 -11 -3 -121 -32 -244 -66 l-224 -61
-23 28 c-13 15 -24 29 -24 31 0 2 18 60 41 129 l41 125 251 -6 c138 -3 252 -7
253 -8z m-3902 -139 c-2 -78 -5 -143 -7 -144 -3 -3 -220 67 -227 73 -3 2 13
20 35 40 22 19 56 49 75 66 19 17 54 48 77 69 24 21 44 38 47 38 2 0 2 -64 0
-142z m2991 100 c28 -3 31 -8 82 -153 28 -82 52 -155 52 -161 1 -6 -24 -16
-54 -23 l-56 -13 -134 117 c-82 71 -135 124 -135 135 0 12 31 41 82 78 l83 60
25 -18 c14 -10 39 -20 55 -22z m93 24 c9 -10 46 -52 82 -93 36 -41 77 -87 92
-104 31 -34 32 -39 18 -82 -9 -25 -20 -32 -66 -45 -62 -18 -62 -17 -89 65 -7
23 -29 89 -49 146 -28 80 -34 106 -25 117 15 18 15 18 37 -4z m-3461 -105 c7
-23 11 -42 10 -44 -4 -3 -93 23 -131 39 l-29 12 64 22 c35 12 66 19 69 17 2
-2 10 -23 17 -46z m-197 -142 c0 -150 -4 -155 -85 -101 -49 33 -55 40 -55 72
0 19 -5 44 -10 55 -9 17 -3 24 51 59 98 63 99 63 99 -85z m134 97 c74 -25 80
-30 92 -64 l12 -36 -74 -67 -74 -66 -35 12 -35 13 0 118 c0 137 -8 131 114 90z
m3295 -111 c108 -94 129 -117 115 -124 -18 -10 -193 -57 -239 -64 -27 -4 -31
-1 -47 39 -10 24 -29 56 -43 72 -14 16 -25 31 -25 33 0 2 12 30 26 61 14 31
30 67 35 80 6 15 16 22 28 20 10 -2 78 -54 150 -117z m1091 62 l18 -42 -181
-120 -181 -120 -24 20 c-14 10 -36 19 -51 20 -19 0 -40 17 -81 65 -30 36 -56
68 -58 72 -1 4 46 20 105 36 60 16 149 40 198 53 50 13 99 26 110 28 11 3 40
11 65 19 25 8 49 13 53 12 5 -1 17 -20 27 -43z m-5851 -60 c65 -38 150 -61
228 -61 l68 0 -1 -68 c-2 -159 -12 -225 -34 -246 -49 -46 7 -132 63 -95 20 13
31 8 164 -81 78 -52 141 -98 139 -101 -43 -74 -60 -162 -45 -230 l8 -34 -27
30 c-253 278 -448 541 -579 783 -65 119 -103 192 -103 198 0 2 17 -12 38 -32
20 -20 57 -49 81 -63z m1616 58 c2 -4 -5 -12 -16 -19 -10 -7 -19 -8 -19 -3 0
5 -3 16 -6 24 -4 12 0 14 15 10 12 -3 23 -8 26 -12z m-972 -157 c22 -29 18
-84 -8 -104 -11 -8 -58 -39 -105 -69 -191 -121 -179 -115 -206 -101 -26 14
-25 9 -9 200 2 25 4 62 4 82 1 33 4 38 39 49 50 16 128 57 143 75 10 12 21 4
68 -48 31 -34 64 -72 74 -84z m1133 105 l125 -40 -6 -252 c-4 -139 -7 -253 -8
-254 -1 -1 -35 -3 -76 -5 l-74 -3 -33 120 c-19 66 -35 129 -38 140 -2 11 -20
80 -41 154 l-37 134 24 23 c13 12 27 23 31 23 4 1 64 -17 133 -40z m4935 -10
c51 -25 60 -34 56 -51 -3 -12 1 -37 9 -56 l14 -34 -81 -101 c-44 -56 -84 -107
-88 -114 -4 -7 -21 -17 -38 -22 l-31 -9 -23 72 c-13 39 -24 73 -24 76 -1 3 -7
23 -13 45 -16 54 -15 63 7 70 25 7 129 112 137 137 7 23 4 23 75 -13z m-1473
-25 c-9 -8 -49 -13 -45 -6 2 4 7 15 10 25 6 17 8 17 23 2 9 -9 14 -18 12 -21z
m671 -7 c13 -18 39 -44 57 -58 l33 -26 -121 -159 c-66 -87 -129 -169 -138
-182 l-18 -22 -43 36 c-65 54 -150 127 -165 141 -8 8 -10 22 -5 39 5 20 49 55
181 144 96 65 180 118 185 119 6 0 21 -14 34 -32z m-4300 -109 c17 -68 33
-130 36 -138 2 -8 18 -69 35 -135 18 -66 33 -126 34 -133 0 -7 -17 -21 -40
-31 -38 -17 -42 -17 -53 -2 -6 9 -61 90 -121 180 l-110 165 20 21 c11 12 20
33 20 47 0 18 14 39 43 66 51 49 90 81 98 82 3 0 20 -55 38 -122z m436 64 c94
-32 110 -40 107 -57 -13 -101 12 -192 70 -252 l30 -31 -63 -88 c-35 -48 -67
-92 -71 -97 -4 -6 -28 0 -62 16 -54 26 -82 35 -122 41 -20 3 -20 16 -15 449 1
31 4 57 9 56 4 0 57 -17 117 -37z m3318 -79 c28 -29 28 -33 16 -67 l-13 -36
-118 0 c-131 0 -131 0 -104 65 8 19 13 35 11 35 -1 0 5 21 15 47 14 37 25 50
51 59 37 13 30 18 142 -103z m-4332 22 c43 -10 85 3 120 36 l31 29 53 -35 c45
-30 53 -41 59 -76 6 -40 5 -42 -86 -147 -51 -59 -94 -107 -96 -106 -9 1 -343
257 -340 259 2 2 41 26 87 53 l84 51 30 -29 c16 -16 43 -32 58 -35z m4109 -6
c-31 -98 -36 -100 -55 -33 -9 32 -16 64 -16 69 0 9 81 36 89 30 2 -2 -6 -31
-18 -66z m-74 -35 c12 -35 18 -64 12 -64 -5 0 -38 25 -74 55 l-64 54 47 14
c27 8 50 13 53 10 2 -2 14 -33 26 -69z m979 33 c11 -8 41 -22 67 -32 26 -10
46 -21 44 -24 -3 -4 -8 -45 -12 -91 -3 -47 -8 -92 -10 -100 -1 -8 -3 -31 -3
-51 l-1 -36 -63 -5 c-70 -6 -128 -31 -172 -77 -16 -17 -34 -31 -40 -31 -5 0
-34 22 -64 49 l-55 48 70 89 c38 49 100 131 138 182 38 50 72 92 75 92 4 0 15
-6 26 -13z m-1056 -56 c73 -66 75 -80 19 -142 -18 -20 -44 -51 -58 -69 -14
-18 -35 -44 -48 -59 -12 -14 -37 -45 -55 -68 -54 -70 -51 -71 -166 37 l-103
97 17 49 c9 27 18 69 19 93 1 49 -1 48 121 77 11 2 49 13 85 24 36 10 74 19
85 19 11 0 49 -26 84 -58z m1527 -229 c-8 -23 -13 -48 -10 -56 3 -9 -27 -26
-96 -54 l-100 -42 -45 34 c-25 19 -61 40 -81 48 l-36 13 7 88 c3 49 8 98 10
109 3 11 5 37 6 57 l3 36 90 1 c63 1 106 8 141 21 l50 19 38 -115 c37 -113 38
-117 23 -159z m342 263 c6 -5 -156 -252 -170 -261 -4 -3 -20 6 -35 20 l-27 25
49 63 c27 35 52 65 55 68 3 3 22 27 43 53 32 39 43 46 60 41 12 -4 23 -8 25
-9z m-3788 -20 c8 -2 89 -22 180 -45 91 -23 171 -43 178 -43 34 -1 -1 -23
-135 -87 -82 -39 -160 -77 -174 -85 l-27 -15 -45 103 c-67 150 -69 157 -55
174 7 9 20 12 37 8 14 -4 33 -8 41 -10z m-124 -14 c24 -27 125 -261 119 -272
-4 -5 -10 -9 -15 -9 -9 0 -105 -43 -248 -112 -54 -26 -67 -29 -88 -19 -14 6
-35 11 -48 11 -16 0 -37 20 -75 70 -30 39 -52 72 -50 73 77 52 102 78 129 132
17 35 31 78 32 103 l1 42 114 0 c98 0 115 -2 129 -19z m-2257 -15 c14 -17 73
-324 65 -337 -3 -5 -20 -16 -37 -25 -18 -9 -41 -25 -52 -35 -20 -18 -23 -17
-152 69 -72 49 -138 94 -146 100 -20 17 -11 47 17 60 24 11 213 131 256 162
31 23 35 24 49 6z m243 -112 c84 -64 156 -119 160 -123 4 -4 -16 -33 -45 -65
l-52 -58 -52 17 c-32 10 -73 16 -107 13 l-55 -3 -26 140 c-14 77 -28 150 -30
162 -5 23 20 46 42 38 7 -2 81 -56 165 -121z m3050 93 l73 -34 12 -54 c6 -30
10 -54 9 -55 0 0 -46 -28 -102 -62 -56 -34 -104 -62 -108 -62 -11 0 7 271 19
290 9 15 17 13 97 -23z m-138 17 c11 -4 14 -15 11 -37 -2 -18 -7 -84 -10 -147
-3 -63 -7 -115 -8 -116 -1 -1 -34 -22 -74 -47 l-71 -46 -14 27 c-7 15 -40 76
-72 136 -58 108 -59 109 -39 125 12 9 24 26 27 38 7 23 18 28 75 38 19 3 37 8
41 10 4 2 22 7 41 10 18 3 35 8 38 11 6 6 37 5 55 -2z m-2472 -33 c13 -12 238
-353 238 -360 0 -4 -17 -20 -38 -36 -22 -16 -48 -42 -59 -57 l-20 -28 -74 57
c-134 102 -194 148 -206 158 -6 6 -28 23 -47 39 l-36 28 71 82 c39 44 82 94
96 109 23 27 52 30 75 8z m4015 -46 c3 -9 -10 -39 -31 -70 -33 -49 -40 -55
-72 -55 -19 0 -44 -5 -54 -10 -16 -9 -25 -1 -63 57 -24 38 -42 74 -39 81 3 9
38 12 128 12 103 0 126 -3 131 -15z m-1911 -30 c12 -8 24 -11 28 -8 5 5 9 -14
8 -37 -3 -68 -15 -260 -17 -275 -1 -11 -3 -34 -4 -51 -1 -26 -9 -36 -49 -61
l-48 -30 -34 23 c-37 25 -81 32 -117 20 -24 -8 -20 -16 -102 173 -23 51 -40
95 -39 96 2 2 37 19 78 38 41 19 118 56 170 81 52 25 97 46 100 46 3 0 15 -7
26 -15z m1617 6 c14 -6 41 -36 62 -70 34 -57 35 -62 22 -88 -8 -16 -19 -39
-25 -53 -5 -14 -18 -26 -29 -27 -11 -1 -46 -6 -79 -12 -98 -18 -171 -24 -187
-15 -12 7 3 31 75 119 49 61 97 120 106 132 19 26 22 26 55 14z m505 -83 c59
-51 106 -96 104 -101 -2 -8 -119 -164 -132 -177 -3 -3 -31 -40 -64 -82 -51
-68 -76 -87 -76 -58 0 4 -20 41 -45 81 l-45 73 30 29 c31 30 46 81 36 121 -3
13 -20 38 -36 56 l-31 33 35 53 c29 43 42 53 68 57 18 2 37 5 41 5 5 1 57 -39
115 -90z m-1980 -110 c29 -53 52 -99 52 -101 0 -6 -145 -97 -154 -97 -4 0 -5
24 -2 53 3 28 8 102 12 162 3 61 8 114 11 118 3 5 11 -2 17 -15 7 -13 36 -67
64 -120z m512 58 c0 -10 -74 -108 -207 -274 l-83 -104 6 99 c9 162 12 195 21
204 4 4 55 37 113 72 l105 64 22 -26 c12 -14 22 -30 23 -35z m505 -31 c12 -11
46 -43 77 -72 60 -56 68 -69 59 -94 -5 -15 -471 -333 -504 -344 -6 -3 -27 9
-46 26 l-34 31 37 167 c20 91 41 182 46 201 l9 35 63 1 c74 0 143 30 192 81
l30 33 25 -23 c14 -12 35 -31 46 -42z m-2236 10 c28 -1 66 0 84 5 34 7 35 6
89 -68 51 -70 54 -78 42 -101 -7 -13 -11 -28 -8 -33 3 -4 -57 -37 -133 -73
-76 -36 -146 -70 -155 -75 -29 -16 -35 -12 -66 43 -16 28 -50 74 -76 101 -25
28 -46 51 -46 53 0 4 68 96 121 165 l20 27 39 -20 c21 -11 61 -22 89 -24z
m-1176 -73 c56 -43 125 -96 152 -117 28 -20 62 -48 77 -60 l27 -23 -19 -39
c-10 -21 -23 -51 -30 -67 l-11 -29 -82 8 c-45 4 -104 9 -132 11 -27 2 -55 6
-61 8 -6 2 -13 31 -16 63 -7 70 -32 124 -81 173 l-35 35 50 58 c28 31 53 57
55 57 3 0 51 -35 106 -78z m3008 31 l26 -11 -23 -104 c-12 -57 -33 -149 -45
-205 -22 -100 -22 -102 -51 -101 -15 1 -45 -7 -66 -16 l-37 -17 -86 40 c-109
50 -113 61 -51 139 59 73 82 103 177 225 l76 97 27 -18 c15 -10 39 -23 53 -29z
m-1088 -112 c54 -123 57 -132 41 -148 -23 -23 -44 -76 -44 -111 0 -27 -6 -32
-89 -66 -104 -43 -122 -40 -169 26 -17 24 -58 79 -91 124 -55 74 -59 84 -54
121 5 40 7 41 97 84 173 82 231 108 241 105 6 -1 36 -62 68 -135z m2657 51
c19 -18 38 -32 43 -32 4 0 0 -15 -10 -32 -12 -23 -17 -57 -18 -110 l0 -76
-159 -31 c-150 -29 -160 -30 -172 -13 -8 9 -12 22 -10 28 2 6 59 83 127 172
139 182 115 170 199 94z m730 49 c0 -5 14 -14 31 -20 l31 -11 -33 -42 c-49
-64 -119 -146 -166 -197 l-41 -45 8 45 c9 49 -4 131 -27 168 -8 13 -11 27 -6
31 12 13 166 78 186 79 9 1 17 -3 17 -8z m-2696 -68 c-4 -52 -11 -164 -13
-218 -1 -27 -12 -13 -61 80 -23 44 -47 86 -53 93 -8 10 -7 16 3 23 8 4 40 24
70 43 30 19 56 35 57 35 1 1 -1 -25 -3 -56z m1331 -7 c23 -43 69 -71 119 -71
38 0 40 -2 86 -79 l46 -79 -24 -24 c-16 -17 -23 -32 -19 -48 3 -20 -8 -35 -61
-82 -36 -32 -71 -64 -78 -70 -18 -18 -26 -16 -64 17 -19 16 -40 29 -46 30 -6
0 -17 7 -24 15 -19 23 -136 55 -204 56 l-62 1 -1 119 -2 118 27 13 c19 10 28
22 30 44 l3 31 122 20 c67 11 125 21 128 22 3 0 14 -14 24 -33z m-1467 -58 c6
-13 30 -56 52 -97 22 -41 39 -80 36 -86 -6 -17 -248 -14 -269 3 -17 15 -16 87
2 105 12 12 154 97 162 97 3 0 11 -10 17 -22z m1107 -27 c10 -17 9 -269 -1
-258 -7 7 -74 -16 -134 -46 -52 -26 -137 -106 -169 -159 -13 -21 -25 -38 -28
-38 -3 0 -49 14 -102 31 l-97 31 -2 54 -1 54 256 170 c141 93 259 170 264 170
4 0 10 -4 14 -9z m-2117 -45 c23 3 33 -4 64 -48 21 -29 62 -86 91 -127 50 -68
53 -76 42 -99 -16 -29 -29 -39 -132 -92 -45 -23 -86 -39 -91 -36 -5 3 -15 -1
-22 -9 -7 -8 -15 -13 -19 -11 -3 2 -49 7 -101 11 -52 4 -104 8 -115 10 -11 1
-42 3 -68 4 l-49 1 8 53 c9 65 10 87 2 163 l-7 60 137 64 c75 35 145 69 156
76 15 10 24 9 48 -6 17 -10 42 -16 56 -14z m796 -63 c-2 -26 -10 -50 -16 -55
-10 -5 -10 -15 0 -41 7 -19 12 -84 12 -155 0 -119 -1 -122 -27 -149 -16 -15
-34 -28 -42 -29 -17 -3 -110 -24 -135 -31 -17 -5 -18 0 -11 53 3 32 8 61 10
64 1 3 6 29 9 59 8 64 11 71 36 71 10 0 34 15 53 33 40 37 53 85 40 137 -9 33
-7 36 31 62 23 15 42 28 43 28 1 0 0 -21 -3 -47z m2350 -78 c6 -11 23 -36 38
-56 l27 -35 -97 -147 c-60 -91 -103 -145 -112 -144 -15 2 -47 46 -157 222 -73
117 -73 118 37 139 41 8 89 17 105 20 17 4 46 9 65 12 19 3 37 8 40 10 10 11
44 -2 54 -21z m-4614 -9 c41 -4 84 -9 95 -11 11 -2 38 -4 60 -4 l40 -1 -1 -77
c-1 -56 5 -97 20 -144 l22 -67 -119 -37 c-104 -32 -123 -35 -148 -25 -16 7
-40 13 -52 13 -20 0 -30 14 -66 97 l-42 98 40 54 c23 29 41 56 41 60 0 17 21
59 27 55 5 -3 42 -8 83 -11z m2558 -4 c4 -13 -253 -292 -269 -292 -5 0 -9 57
-9 128 0 127 0 128 28 152 27 23 35 25 137 24 76 0 110 -4 113 -12z m158 -59
c65 -29 83 -41 77 -53 -4 -8 -7 -47 -8 -86 0 -78 2 -75 -88 -143 -33 -24 -63
-39 -67 -35 -5 5 -9 79 -10 164 -1 192 -1 190 6 190 3 0 44 -17 90 -37z m-116
-136 l0 -164 -33 -18 c-20 -10 -44 -16 -58 -12 -91 21 -182 53 -189 66 -8 16
-3 23 193 229 32 34 65 62 73 62 11 0 14 -30 14 -163z m-640 113 c15 -18 38
-33 58 -36 33 -6 34 -8 28 -48 -13 -102 -29 -194 -34 -203 -4 -5 -64 -22 -135
-37 -98 -22 -131 -25 -141 -16 -11 8 -14 39 -12 133 2 67 6 132 10 143 5 15
33 33 89 57 45 19 89 35 97 36 8 1 26 -12 40 -29z m2257 15 c18 -1 42 -30 118
-152 88 -141 94 -154 83 -178 -11 -24 -16 -25 -57 -21 -25 3 -91 8 -146 12
-55 3 -105 10 -111 15 -6 5 -16 26 -23 48 -6 22 -26 62 -45 89 l-33 49 86 76
c47 42 90 73 95 70 5 -4 20 -7 33 -8z m585 -69 c34 -9 70 -11 101 -6 26 4 47
3 47 -1 0 -4 -4 -9 -9 -11 -5 -1 -34 -26 -63 -53 -203 -193 -546 -432 -815
-570 -85 -44 -101 -45 -60 -6 61 56 113 214 104 314 l-4 49 106 -7 c180 -11
191 -13 221 -39 34 -28 64 -25 87 10 12 19 13 30 4 56 -11 31 -8 37 80 170
l91 137 29 -14 c15 -8 52 -21 81 -29z m-4968 -126 l38 -90 -22 -35 c-12 -19
-24 -35 -27 -35 -14 0 -263 209 -263 221 0 4 12 4 28 0 34 -10 115 1 162 21
19 8 38 14 41 12 3 -2 23 -44 43 -94z m1867 78 c4 -98 -2 -213 -10 -221 -8 -8
-23 -4 -50 11 -21 12 -49 28 -62 35 -116 63 -123 84 -41 126 31 17 71 39 87
50 42 28 75 27 76 -1z m-531 -83 c225 -16 231 -17 246 -43 10 -15 8 -28 -10
-63 -11 -25 -34 -74 -50 -110 -56 -122 -37 -121 -199 -12 -179 121 -175 117
-155 140 9 10 25 37 37 61 12 23 25 41 29 39 4 -3 50 -8 102 -12z m1984 -26
l94 -31 -14 -50 c-37 -123 -10 -278 66 -380 44 -58 47 -49 -40 -149 -119 -136
-122 -139 -149 -139 -24 0 -30 11 -79 127 -50 121 -51 127 -36 151 9 13 16 39
16 57 0 32 -26 85 -42 85 -28 0 -35 30 -34 151 1 68 3 129 3 134 1 6 19 18 41
29 21 10 41 25 44 32 8 20 25 18 130 -17z m-315 -8 c14 -10 37 -21 51 -22 l25
-4 0 -137 0 -138 -26 -9 c-42 -15 -69 -50 -69 -92 0 -31 -5 -40 -40 -63 -22
-14 -46 -26 -55 -26 -28 0 -48 59 -86 257 -8 43 -7 57 6 77 9 13 15 32 13 42
-2 12 21 36 72 76 41 32 77 58 78 58 2 0 16 -9 31 -19z m-2579 -33 c0 -6 8
-20 18 -30 40 -43 107 -108 112 -108 3 0 11 -4 18 -9 11 -7 8 -19 -13 -61 -24
-48 -29 -52 -55 -47 -17 4 -42 -1 -66 -13 -21 -11 -42 -16 -48 -11 -121 90
-214 174 -218 195 -5 24 -1 27 81 51 47 14 95 30 106 35 29 13 65 12 65 -2z
m1276 -23 c29 -19 56 -35 61 -35 17 0 68 -45 68 -60 0 -8 11 -19 24 -25 22 -9
65 -89 128 -235 8 -19 19 -43 24 -52 15 -29 10 -46 -15 -52 -13 -3 -38 -19
-56 -36 l-33 -30 -87 57 c-96 64 -323 215 -328 218 -1 1 28 66 64 144 42 88
73 141 82 141 8 0 39 -16 68 -35z m694 -10 c7 -8 18 -15 25 -15 12 0 32 -48
103 -246 l30 -82 -23 -10 c-52 -24 -114 -99 -130 -157 -5 -16 -9 -33 -10 -37
-2 -5 -3 -17 -4 -28 -1 -18 -8 -20 -90 -20 l-89 0 -6 34 c-4 18 -21 50 -39 71
l-33 39 12 73 c7 41 15 93 18 116 3 23 12 83 21 132 8 50 15 93 15 96 0 4 14
9 30 13 17 3 31 6 33 7 3 1 111 27 118 28 4 1 12 -6 19 -14z m313 -78 c6 -19
18 -30 37 -34 28 -5 35 -21 46 -93 1 -8 9 -46 17 -85 9 -38 15 -71 13 -72 -1
-1 -20 6 -42 17 -49 23 -107 31 -162 21 -48 -9 -48 -9 -75 69 -9 25 -31 88
-51 141 -30 86 -33 98 -19 111 13 14 26 12 121 -16 94 -28 107 -35 115 -59z
m-1406 -59 c84 -57 153 -106 153 -110 0 -4 -23 -56 -51 -115 -28 -60 -62 -132
-75 -160 -17 -37 -30 -53 -44 -53 -10 0 -32 -11 -48 -25 l-30 -25 -83 39
c-143 66 -220 101 -224 101 -2 0 -36 15 -77 34 -40 19 -100 46 -133 61 -123
55 -123 55 -118 76 3 10 -1 29 -10 42 -14 21 -13 27 9 74 12 28 27 54 33 57 5
4 27 0 48 -9 138 -54 326 -21 438 79 22 19 45 35 50 36 6 0 79 -46 162 -102z
m869 75 c-3 -16 -8 -44 -11 -63 -3 -19 -7 -48 -10 -65 -3 -16 -13 -81 -22
-143 l-17 -114 -30 6 c-17 4 -33 10 -37 14 -11 11 -137 296 -141 317 -3 15 14
22 112 45 155 37 163 37 156 3z m-1937 -85 c31 -24 58 -45 61 -48 3 -3 26 -23
53 -44 32 -26 47 -46 47 -62 0 -30 -5 -30 -49 -1 -20 13 -63 41 -96 62 -33 20
-75 49 -93 62 l-33 25 23 24 c13 13 25 24 27 24 2 0 29 -19 60 -42z m1292
-143 c10 -5 97 -63 193 -127 l174 -118 -3 -40 c-1 -23 -4 -43 -6 -44 -2 -2
-35 -7 -74 -11 -38 -3 -88 -8 -110 -11 -22 -2 -65 -6 -95 -8 -30 -3 -88 -8
-128 -11 -40 -4 -81 -8 -90 -9 -11 -1 -18 8 -20 24 -2 14 -13 34 -23 46 -20
21 -20 21 57 183 65 135 79 159 92 149 8 -7 23 -17 33 -23z m-845 -119 c65
-29 145 -65 177 -80 32 -14 59 -26 62 -26 2 0 36 -15 77 -34 40 -18 103 -47
141 -64 61 -28 89 -54 73 -69 -7 -8 -219 66 -356 124 -132 56 -330 152 -330
160 0 6 30 43 35 43 1 0 55 -24 121 -54z m2336 -3 c10 -9 36 -17 61 -17 34 -1
45 -6 56 -26 23 -41 102 -233 97 -237 -6 -7 -321 223 -321 235 0 11 63 60 79
61 5 1 18 -6 28 -16z m579 -97 c59 -40 135 -62 224 -65 28 -1 35 -4 25 -10
-62 -35 -485 -169 -497 -157 -3 3 -11 16 -18 28 -10 21 -5 30 49 93 33 38 68
79 79 90 10 11 28 32 40 47 20 25 24 26 42 12 11 -8 36 -25 56 -38z m-476
-135 c89 -65 100 -76 100 -103 0 -20 -5 -32 -15 -34 -8 -1 -69 -11 -135 -23
-66 -11 -142 -23 -170 -27 -27 -3 -58 -8 -67 -10 -26 -4 -23 1 23 47 23 23 50
61 61 85 21 49 30 133 17 177 l-8 28 47 -34 c26 -19 92 -67 147 -106z m-726
-17 c14 -55 50 -114 88 -143 15 -12 39 -31 53 -42 l25 -19 -245 4 c-135 3
-256 7 -270 10 -14 2 -54 7 -90 11 -72 7 -108 12 -190 25 -30 5 -68 12 -85 14
-69 12 -234 48 -287 62 -48 14 -55 19 -44 30 18 17 65 25 251 39 39 3 86 8
105 10 19 2 70 7 112 11 l76 6 16 -30 c32 -63 119 -96 189 -73 40 14 93 68
103 106 6 24 9 25 94 25 l88 0 11 -46z"/>
</g>
</svg>
